<svg width="500px" height="165px" viewBox="0 0 500 165" version="1.1" xmlns="http://www.w3.org/2000/svg" xmlns:xlink="http://www.w3.org/1999/xlink" class="w-full h-auto">
    <title>Daniels-LG</title>
    <defs>
        <polygon id="path-1" points="0 0 78.689 0 78.689 106.939 0 106.939"></polygon>
    </defs>
    <g id="Page-1" stroke="none" stroke-width="1" fill="none" fill-rule="evenodd">
        <g id="Daniels-LG" transform="translate(0.000000, -0.000000)">
            <path d="M78.689,0 L78.689,105.188 L68.75,105.188 L68.75,86.051 C63.205,98.613 51.661,106.939 37.196,106.939 C15.865,106.939 -0.06,90.141 -0.06,67.938 C-0.06,45.728 15.865,28.924 37.196,28.924 C51.661,28.924 63.205,37.25 68.75,49.819 L68.75,0 L78.689,0 Z M68.75,67.938 C68.75,53.757 56.188,43.098 39.536,43.098 C22.731,43.098 10.315,53.757 10.315,67.938 C10.315,82.106 22.731,92.765 39.536,92.765 C56.188,92.765 68.75,82.106 68.75,67.938 L68.75,67.938 Z" id="Fill-1" fill="#1E161E" ></path>
            <path d="M174.247,30.676 L174.247,105.189 L164.309,105.189 L164.309,86.051 C158.764,98.614 147.22,106.94 132.755,106.94 C111.424,106.94 95.499,90.142 95.499,67.932 C95.499,45.729 111.424,28.925 132.755,28.925 C147.22,28.925 158.764,37.251 164.309,49.819 L164.309,30.676 L174.247,30.676 Z M164.309,67.932 C164.309,53.758 151.747,43.093 135.094,43.093 C118.29,43.093 105.873,53.758 105.873,67.932 C105.873,82.106 118.29,92.766 135.094,92.766 C151.747,92.766 164.309,82.106 164.309,67.932 L164.309,67.932 Z" id="Fill-4" fill="#1E161E"></path>
            <path d="M265.275,59.171 L265.275,105.19 L255.343,105.19 L255.343,63.116 C255.343,50.984 245.702,43.094 230.946,43.094 C215.754,43.094 205.524,51.135 205.524,63.407 L205.524,105.19 L195.592,105.19 L195.592,30.677 L205.524,30.677 L205.524,47.772 C210.784,35.792 221.298,28.926 235.036,28.926 C253.149,28.926 265.275,40.906 265.275,59.171" id="Fill-5" fill="#1E161E"></path>
            <path d="M281.361,8.031 C281.361,3.504 285.306,0.002 290.56,0.002 C295.826,0.002 299.771,3.504 299.771,8.031 C299.771,12.419 295.826,15.921 290.56,15.921 C285.306,15.921 281.361,12.419 281.361,8.031 L281.361,8.031 Z M285.597,105.19 L295.529,105.19 L295.529,30.677 L285.597,30.677 L285.597,105.19 Z" id="Fill-6" fill="#1E161E"></path>
            <path d="M391.082,73.193 L322.708,73.193 C325.484,84.592 336.882,92.627 352.074,92.627 C362.885,92.627 372.527,89.118 377.641,83.713 L389.767,83.713 C383.628,97.735 369.315,106.941 351.929,106.941 C329.138,106.941 312.043,90.142 312.043,67.933 C312.043,45.729 329.138,28.925 351.784,28.925 C374.278,28.925 391.373,45.578 391.373,68.224 C391.373,69.836 391.228,71.581 391.082,73.193 M322.708,62.527 L380.859,62.527 C378.223,51.135 366.388,43.245 351.784,43.245 C337.028,43.245 325.484,51.135 322.708,62.527" id="Fill-7" fill="#1E161E"></path>
            <polygon id="Fill-8" fill="#1E161E" points="407.75 105.19 417.683 105.19 417.683 0.002 407.75 0.002"></polygon>
            <path d="M434.195,81.957 L444.133,81.957 C444.133,88.532 453.623,93.204 467.07,93.204 C480.511,93.204 489.716,89.259 489.716,83.715 C489.716,78.158 480.65,75.528 464.434,73.34 C447.199,70.856 435.51,63.844 435.51,50.985 C435.51,37.102 449.241,28.927 466.773,28.927 C485.474,28.927 498.624,39.005 498.624,52.882 L488.395,52.882 C488.395,46.895 479.632,42.659 466.773,42.659 C454.356,42.659 445.593,46.313 445.593,51.573 C445.593,56.536 454.211,59.463 470.136,61.651 C487.377,63.99 499.939,70.71 499.939,84.006 C499.939,98.319 485.771,106.936 466.918,106.936 C447.636,106.936 434.195,96.277 434.195,81.957" id="Fill-9" fill="#1E161E"></path>
            <polyline id="Fill-10" fill="#1E161E" points="94.955 144.359 94.955 146.607 102.827 146.607 102.827 163.956 105.415 163.956 105.415 146.607 113.286 146.607 113.286 144.359 94.955 144.359"></polyline>
            <path d="M122.732,144.359 L113.479,163.956 L116.187,163.956 L118.611,158.799 L129.356,158.799 L131.78,163.956 L134.597,163.956 L125.35,144.359 L122.732,144.359 Z M123.999,147.177 L128.325,156.551 L119.648,156.551 L123.999,147.177 L123.999,147.177 Z" id="Fill-11" fill="#1E161E"></path>
            <polyline id="Fill-12" fill="#1E161E" points="156.039 144.359 156.039 159.866 143.822 144.359 140.253 144.359 140.253 163.956 142.762 163.956 142.762 147.007 156.1 163.956 158.548 163.956 158.548 144.359 156.039 144.359"></polyline>
            <path d="M184.685,154.154 C184.685,160.123 180.734,163.953 174.595,163.953 L165.839,163.953 L165.839,144.361 L174.595,144.361 C180.734,144.361 184.685,148.191 184.685,154.154 M182.031,154.154 C182.031,149.488 179.092,146.609 174.31,146.609 L168.432,146.609 L168.432,161.705 L174.31,161.705 C179.092,161.705 182.031,158.826 182.031,154.154" id="Fill-13" fill="#1E161E"></path>
            <polyline id="Fill-14" fill="#1E161E" points="206.668 144.359 206.668 152.915 193.53 152.915 193.53 144.359 190.936 144.359 190.936 163.956 193.53 163.956 193.53 155.164 206.668 155.164 206.668 163.956 209.262 163.956 209.262 144.359 206.668 144.359"></polyline>
            <polyline id="Fill-15" fill="#1E161E" points="216.55 144.359 216.55 163.956 233.645 163.956 233.645 161.708 219.144 161.708 219.144 155.164 231.767 155.164 231.767 152.915 219.144 152.915 219.144 146.607 233.645 146.607 233.645 144.359 216.55 144.359"></polyline>
            <polyline id="Fill-16" fill="#1E161E" points="239.604 144.359 239.604 163.956 256.699 163.956 256.699 161.708 242.198 161.708 242.198 155.164 254.821 155.164 254.821 152.915 242.198 152.915 242.198 146.607 256.699 146.607 256.699 144.359 239.604 144.359"></polyline>
            <polyline id="Fill-17" fill="#1E161E" points="262.652 144.359 262.652 163.956 279.166 163.956 279.166 161.708 265.246 161.708 265.246 144.359 262.652 144.359"></polyline>
            <polyline id="Fill-18" fill="#1E161E" points="300.486 144.359 287.458 155.133 287.458 144.359 284.864 144.359 284.864 163.956 287.458 163.956 287.458 158.078 293.372 153.206 301.207 163.956 304.377 163.956 295.329 151.564 304.086 144.359 300.486 144.359"></polyline>
            <path d="M309.613,156.84 L309.613,144.357 L312.206,144.357 L312.206,156.404 C312.206,160.064 314.424,161.937 318.721,161.937 C323.011,161.937 325.235,160.064 325.235,156.404 L325.235,144.357 L327.744,144.357 L327.744,156.804 C327.744,161.591 324.484,164.3 318.69,164.3 C312.867,164.3 309.613,161.622 309.613,156.84" id="Fill-19" fill="#1E161E"></path>
            <polyline id="Fill-20" fill="#1E161E" points="350.504 144.359 350.504 159.866 338.287 144.359 334.712 144.359 334.712 163.956 337.221 163.956 337.221 147.007 350.559 163.956 353.013 163.956 353.013 144.359 350.504 144.359"></polyline>
            <path d="M379.147,154.154 C379.147,160.123 375.202,163.953 369.057,163.953 L360.301,163.953 L360.301,144.361 L369.057,144.361 C375.202,144.361 379.147,148.191 379.147,154.154 M376.493,154.154 C376.493,149.488 373.554,146.609 368.772,146.609 L362.894,146.609 L362.894,161.705 L368.772,161.705 C373.554,161.705 376.493,158.826 376.493,154.154" id="Fill-21" fill="#1E161E"></path>
            <polyline id="Fill-22" fill="#1E161E" points="385.398 144.359 385.398 163.956 402.493 163.956 402.493 161.708 387.992 161.708 387.992 155.164 400.615 155.164 400.615 152.915 387.992 152.915 387.992 146.607 402.493 146.607 402.493 144.359 385.398 144.359"></polyline>
        </g>
    </g>
</svg>     